<mxfile host="Electron" modified="2023-09-19T14:36:19.780Z" agent="Mozilla/5.0 (Windows NT 10.0; Win64; x64) AppleWebKit/537.36 (KHTML, like Gecko) draw.io/21.5.1 Chrome/112.0.5615.204 Electron/24.6.0 Safari/537.36" etag="bjausH1EvgFenHVPvAVO" version="21.5.1" type="device">
  <diagram name="Page-1" id="BYBfGchZeX67b2NiWp1s">
    <mxGraphModel dx="1036" dy="614" grid="1" gridSize="10" guides="1" tooltips="1" connect="1" arrows="1" fold="1" page="1" pageScale="1" pageWidth="1169" pageHeight="1654" math="0" shadow="0">
      <root>
        <mxCell id="0" />
        <mxCell id="1" parent="0" />
        <mxCell id="iLGXYx9MbgzQDCglSCIc-1" value="&lt;p style=&quot;margin:0px;margin-top:4px;margin-left:10px;text-align:left;&quot;&gt;&lt;b&gt;std&lt;/b&gt; PrinterOnderhoudControl&lt;/p&gt;" style="html=1;shape=mxgraph.sysml.package;labelX=178.8;align=left;spacingLeft=10;overflow=fill;recursiveResize=0;container=0;" vertex="1" parent="1">
          <mxGeometry x="30" y="30" width="810" height="570" as="geometry" />
        </mxCell>
        <mxCell id="iLGXYx9MbgzQDCglSCIc-2" style="edgeStyle=orthogonalEdgeStyle;rounded=0;orthogonalLoop=1;jettySize=auto;html=1;" edge="1" parent="1" source="iLGXYx9MbgzQDCglSCIc-3">
          <mxGeometry relative="1" as="geometry">
            <mxPoint x="198" y="280" as="targetPoint" />
          </mxGeometry>
        </mxCell>
        <mxCell id="iLGXYx9MbgzQDCglSCIc-3" value="" style="shape=ellipse;html=1;fillColor=strokeColor;fontSize=18;fontColor=#ffffff;" vertex="1" parent="1">
          <mxGeometry x="178" y="200" width="40" height="40" as="geometry" />
        </mxCell>
        <mxCell id="iLGXYx9MbgzQDCglSCIc-10" value="" style="line;strokeWidth=1;fillColor=none;align=left;verticalAlign=middle;spacingTop=-1;spacingLeft=3;spacingRight=3;rotatable=0;labelPosition=right;points=[];portConstraint=eastwest;strokeColor=inherit;" vertex="1" parent="1">
          <mxGeometry x="30" y="170" width="810" height="8" as="geometry" />
        </mxCell>
        <mxCell id="iLGXYx9MbgzQDCglSCIc-18" value="lokale convenience functies:&lt;br style=&quot;border-color: var(--border-color);&quot;&gt;Zelfde als bij HoofdmenuControl:&lt;br style=&quot;border-color: var(--border-color);&quot;&gt;clearScreen(),&amp;nbsp;toonText(int x,y; string&amp;amp; str) en toonButton(int x,y; string&amp;amp; str)&lt;br&gt;&lt;br&gt;void toonPrinterOnderhoudMenu()&lt;br&gt;{&lt;br&gt;&amp;nbsp; &amp;nbsp; toonTekst(0,0,&quot;Printeronderhoud&quot;)&lt;br&gt;&lt;span style=&quot;&quot;&gt;&lt;/span&gt;&amp;nbsp; &amp;nbsp; drawTouchArea(taExtruderLeegmaken,&quot;Extruder Leegmaken&quot;);&lt;br&gt;&amp;nbsp; &amp;nbsp; drawTouchArea(taExtruderLaden,&quot;Extruder Laden&quot;);&lt;br&gt;&amp;nbsp; &amp;nbsp; drawTouchArea(taTerug,&quot;Terug&quot;);&lt;br&gt;}" style="shape=note;size=15;align=left;spacingLeft=10;html=1;whiteSpace=wrap;" vertex="1" parent="1">
          <mxGeometry x="409" y="186" width="420" height="174" as="geometry" />
        </mxCell>
        <mxCell id="iLGXYx9MbgzQDCglSCIc-19" value="" style="group" vertex="1" connectable="0" parent="1">
          <mxGeometry x="100" y="520" width="200" height="60" as="geometry" />
        </mxCell>
        <mxCell id="iLGXYx9MbgzQDCglSCIc-20" value="X" style="shape=rect;rounded=1;html=1;whiteSpace=wrap;align=center;" vertex="1" parent="iLGXYx9MbgzQDCglSCIc-19">
          <mxGeometry y="20" width="200" height="40" as="geometry" />
        </mxCell>
        <mxCell id="iLGXYx9MbgzQDCglSCIc-21" value="ExtruderLadenOfLegenControl" style="rounded=0;whiteSpace=wrap;html=1;" vertex="1" parent="iLGXYx9MbgzQDCglSCIc-19">
          <mxGeometry x="10" width="180" height="20" as="geometry" />
        </mxCell>
        <mxCell id="iLGXYx9MbgzQDCglSCIc-22" value="" style="shape=mxgraph.sysml.actFinal;html=1;verticalLabelPosition=bottom;labelBackgroundColor=#ffffff;verticalAlign=top;" vertex="1" parent="1">
          <mxGeometry x="490" y="490" width="40" height="40" as="geometry" />
        </mxCell>
        <mxCell id="iLGXYx9MbgzQDCglSCIc-23" value="&lt;font style=&quot;font-size: 20px;&quot;&gt;&lt;b&gt;...&lt;/b&gt;&lt;/font&gt;" style="text;html=1;strokeColor=none;fillColor=none;align=center;verticalAlign=middle;whiteSpace=wrap;rounded=0;" vertex="1" parent="1">
          <mxGeometry x="383" y="90" width="60" height="30" as="geometry" />
        </mxCell>
        <mxCell id="iLGXYx9MbgzQDCglSCIc-24" value="&lt;font style=&quot;font-size: 20px;&quot;&gt;&lt;b&gt;...&lt;/b&gt;&lt;/font&gt;" style="text;html=1;strokeColor=none;fillColor=none;align=center;verticalAlign=middle;whiteSpace=wrap;rounded=0;" vertex="1" parent="1">
          <mxGeometry x="178" y="360" width="60" height="30" as="geometry" />
        </mxCell>
      </root>
    </mxGraphModel>
  </diagram>
</mxfile>
